<?xml version="1.0" encoding="UTF-8"?>
<!DOCTYPE svg PUBLIC "-//W3C//DTD SVG 1.1//EN" "http://www.w3.org/Graphics/SVG/1.1/DTD/svg11.dtd">
<!-- Creator: CorelDRAW 2020 (64-Bit) -->
<svg xmlns="http://www.w3.org/2000/svg" xml:space="preserve" width="297mm" height="80mm" version="1.1" style="shape-rendering:geometricPrecision; text-rendering:geometricPrecision; image-rendering:optimizeQuality; fill-rule:evenodd; clip-rule:evenodd"
viewBox="0 0 29700 8000"
 xmlns:xlink="http://www.w3.org/1999/xlink"
 xmlns:xodm="http://www.corel.com/coreldraw/odm/2003">
 <defs>
  <style type="text/css">
   <![CDATA[
    .str0 {stroke:#2B2A29;stroke-width:100;stroke-miterlimit:22.9256}
    .fil0 {fill:none;fill-rule:nonzero}
    .fil1 {fill:#2B2A29;fill-rule:nonzero}
   ]]>
  </style>
    <clipPath id="id0">
     <rect x="66.58" y="274.93" width="7515.82" height="7515.82"/>
    </clipPath>
 </defs>
 <g id="Layer_x0020_1">
  <metadata id="CorelCorpID_0Corel-Layer"/>
  <g id="_2159416253200">
   <g>
    <path class="fil0 str0" d="M8455.32 4652.07l1061.89 -2654.73 530.95 0 1060.08 2652.92 -564.77 1.81 -159.47 -407.12 -1203.23 0 -159.47 407.12 -565.98 0zm1341.56 -1946.8l-403.49 1008.73 796.12 0 -392.63 -1008.73z"/>
    <path id="1" class="fil0 str0" d="M12034.83 3059.23l743.57 0c213.22,-3.62 323.16,-100.87 329.2,-291.75 -6.04,-174.57 -114.17,-265.77 -323.77,-272.42l-749 0 0 564.17zm1067.33 435.51l662.02 1157.33 -608.87 0 -635.44 -1096.93 -485.04 0 0 1096.93 -530.95 0 0 -2654.73 1157.33 0c619.74,0 929.61,254.9 929.61,764.7 0,383.57 -163.09,627.6 -488.66,732.7z"/>
    <polygon id="2" class="fil0 str0" points="14039.62,1996.13 14568.76,1996.13 14568.76,4652.07 14039.62,4652.07 "/>
    <polygon id="3" class="fil0 str0" points="15101.51,4652.07 15101.51,1997.34 15278.49,1997.34 16942.01,3660.85 16942.01,1997.34 17472.95,1997.34 17472.95,4652.07 17278.45,4652.07 15632.46,3006.07 15632.46,4652.07 "/>
    <path id="4" class="fil0 str0" d="M17883.7 4652.07l1061.89 -2654.73 530.95 0 1060.08 2652.92 -564.77 1.81 -159.47 -407.12 -1203.23 0 -159.47 407.12 -565.98 0zm1341.56 -1946.8l-403.49 1008.73 796.12 0 -392.63 -1008.73z"/>
    <path id="5" class="fil0 str0" d="M20891.79 1997.34l0 1681.63c0,271.21 109.33,501.35 327.39,689.81 218.06,189.06 492.29,283.29 822.69,283.29 330.41,0 604.64,-94.23 823.3,-283.29 218.06,-188.46 327.39,-418.6 327.39,-689.81l0 -1681.63 -530.95 0 0 1539.68c0,200.54 -59.19,347.93 -176.98,442.76 -118.39,94.23 -265.77,141.34 -442.76,141.34 -176.98,0 -324.36,-47.11 -442.15,-141.34 -117.79,-94.83 -176.98,-242.22 -176.98,-442.76l0 -1539.68 -530.95 0z"/>
    <polygon id="6" class="fil0 str0" points="23631.09,1997.34 23631.09,2493.25 24516,2493.25 24516,4652.07 25046.34,4652.07 25046.34,2493.25 25931.25,2493.25 25931.25,1997.34 "/>
    <polygon id="7" class="fil0 str0" points="26325.68,1996.13 26854.82,1996.13 26854.82,4652.07 26325.68,4652.07 "/>
    <path id="8" class="fil0 str0" d="M28582.35 4652.07c-375.1,-1.21 -689.8,-128.06 -944.1,-381.15 -254.3,-253.09 -381.15,-570.21 -381.15,-951.35 1.21,-372.69 128.06,-686.19 381.75,-940.48 253.7,-254.3 568.4,-381.75 943.5,-381.75 378.73,0 703.7,118.39 974.92,353.96l-353.97 387.79c-180.6,-141.34 -387.18,-212.62 -620.95,-212.62 -238.59,1.21 -430.67,75.51 -576.25,223.49 -145.57,147.39 -218.66,335.85 -218.66,565.98 1.21,246.45 75.51,442.16 221.68,587.73 146.18,144.97 338.26,217.45 576.86,217.45 237.99,0 443.96,-70.06 617.32,-210.8l353.97 387.79c-270.01,236.17 -594.98,353.96 -974.92,353.96z"/>
    <path class="fil1" d="M8872.86 5014.37c135.36,0 240.54,16.25 314.86,48.77 74.66,32.51 144.33,80.95 209.03,145.65l-194.44 194.42c-64.69,-77.63 -155.27,-116.45 -272.06,-116.45 -116.78,0 -191.1,27.54 -223.62,82.61 -32.51,55.08 -32.51,101.86 0,141.01 32.52,38.82 106.84,68.01 223.62,87.26 123.09,12.94 234.9,53.41 335.44,121.43 100.2,68.34 150.63,176.84 150.63,325.81 0,116.45 -53.75,216.98 -160.91,301.25 -107.18,84.27 -232.26,126.41 -374.59,126.41 -135.7,0 -248.5,-19.58 -339.41,-58.39 -90.58,-38.82 -168.55,-90.58 -233.24,-155.61l194.42 -194.09c64.7,77.64 174.85,123.09 330.45,136.03 129.73,0 210.35,-27.54 242.53,-82.61 32.19,-55.08 32.19,-110.15 0,-165.23 -32.18,-55.07 -112.8,-89.25 -242.53,-102.19 -116.78,-12.94 -223.62,-48.44 -320.83,-106.83 -97.21,-58.39 -145.65,-158.92 -145.65,-301.26 0,-129.06 55.08,-232.57 165.56,-310.87 110.48,-77.97 224.28,-117.12 340.74,-117.12z"/>
    <polygon id="1" class="fil1" points="9603.12,5014.37 9603.12,5286.76 10089.17,5286.76 10089.17,6472.54 10380.48,6472.54 10380.48,5286.76 10866.54,5286.76 10866.54,5014.37 "/>
    <path id="2" class="fil1" d="M11060.97 5014.37l0 923.67c0,148.97 60.05,275.38 179.83,378.9 119.77,103.84 270.4,155.6 451.88,155.6 181.48,0 332.12,-51.76 452.23,-155.6 119.77,-103.52 179.82,-229.93 179.82,-378.9l0 -923.67 -291.63 0 0 845.7c0,110.16 -32.53,191.11 -97.22,243.2 -65.03,51.76 -145.99,77.64 -243.2,77.64 -97.21,0 -178.17,-25.88 -242.86,-77.64 -64.7,-52.09 -97.21,-133.04 -97.21,-243.2l0 -845.7 -291.64 0z"/>
    <path id="3" class="fil1" d="M12930.9 6181.9l0 -875.9 270.4 0c258.46,0 388.19,145.98 388.85,437.62 -0.66,291.63 -130.39,437.62 -388.85,438.28l-270.4 0zm270.4 290.64c453.55,0 680.16,-242.86 680.16,-728.92 0,-486.72 -226.61,-729.92 -680.16,-729.92l-562.04 0 0 1458.84 562.04 0z"/>
    <polygon id="4" class="fil1" points="14194.65,5013.7 14485.29,5013.7 14485.29,6472.54 14194.65,6472.54 "/>
    <path id="5" class="fil1" d="M15433.2 6472.54c-207.37,0 -380.89,-69.67 -519.9,-209.35 -139.36,-139.68 -209.03,-312.87 -209.03,-519.57 0,-207.36 69.67,-380.88 209.03,-520.23 139.01,-139.35 312.53,-209.02 519.9,-209.02 207.36,0 380.55,69.67 519.9,209.02 139.34,139.35 209.02,312.87 209.02,520.23 0,207.36 -69.68,380.55 -209.02,519.9 -139.35,139.35 -312.54,209.02 -519.9,209.02zm0.99 -272.06c129.06,0 233.91,-43.79 314.86,-131.38 80.96,-87.59 121.43,-196.09 121.43,-325.48 0,-129.73 -40.47,-238.22 -121.43,-325.81 -80.95,-87.26 -186.46,-131.05 -316.85,-131.05 -129.06,0 -233.9,43.79 -314.86,131.05 -80.95,87.59 -121.43,196.08 -121.43,325.81 0,129.39 40.48,237.89 121.43,325.48 80.96,87.59 186.46,131.38 316.85,131.38z"/>
    <path id="6" class="fil1" d="M16853.23 5014.37c135.36,0 240.54,16.25 314.86,48.77 74.65,32.51 144.32,80.95 209.02,145.65l-194.43 194.42c-64.69,-77.63 -155.27,-116.45 -272.06,-116.45 -116.78,0 -191.1,27.54 -223.62,82.61 -32.51,55.08 -32.51,101.86 0,141.01 32.52,38.82 106.84,68.01 223.62,87.26 123.09,12.94 234.9,53.41 335.43,121.43 100.2,68.34 150.63,176.84 150.63,325.81 0,116.45 -53.75,216.98 -160.91,301.25 -107.17,84.27 -232.25,126.41 -374.58,126.41 -135.7,0 -248.5,-19.58 -339.41,-58.39 -90.58,-38.82 -168.55,-90.58 -233.24,-155.61l194.42 -194.09c64.7,77.64 174.85,123.09 330.45,136.03 129.73,0 210.35,-27.54 242.53,-82.61 32.19,-55.08 32.19,-110.15 0,-165.23 -32.18,-55.07 -112.8,-89.25 -242.53,-102.19 -116.78,-12.94 -223.62,-48.44 -320.83,-106.83 -97.21,-58.39 -145.65,-158.92 -145.65,-301.26 0,-129.06 55.08,-232.57 165.56,-310.87 110.48,-77.97 224.28,-117.12 340.74,-117.12z"/>
   </g>
   <g style="clip-path:url(#id0)">
    <image x="66.58" y="274.94" width="7515.81" height="7515.81" xlink:href="arinautictext_Images\arinautictext_ImgID1.png"/>
   </g>
  </g>
 </g>
</svg>
