<?xml version="1.0" encoding="UTF-8"?>
<!DOCTYPE svg PUBLIC "-//W3C//DTD SVG 1.1//EN" "http://www.w3.org/Graphics/SVG/1.1/DTD/svg11.dtd">
<!-- Creator: CorelDRAW 2020 (64-Bit) -->
<svg xmlns="http://www.w3.org/2000/svg" xml:space="preserve" width="210mm" height="297mm" version="1.1" style="shape-rendering:geometricPrecision; text-rendering:geometricPrecision; image-rendering:optimizeQuality; fill-rule:evenodd; clip-rule:evenodd"
viewBox="0 0 21000 29700"
 xmlns:xlink="http://www.w3.org/1999/xlink"
 xmlns:xodm="http://www.corel.com/coreldraw/odm/2003">
 <defs>
  <style type="text/css">
   <![CDATA[
    .str0 {stroke:#2B2A29;stroke-width:100;stroke-miterlimit:22.9256}
    .fil0 {fill:none;fill-rule:nonzero}
    .fil1 {fill:#2B2A29;fill-rule:nonzero}
   ]]>
  </style>
    <clipPath id="id0">
     <rect x="53.96" y="8271.67" width="5285.42" height="5285.42"/>
    </clipPath>
 </defs>
 <g id="Layer_x0020_1">
  <metadata id="CorelCorpID_0Corel-Layer"/>
  <g id="_2159417094064">
   <g>
    <path class="fil0 str0" d="M5953.25 11349.84l746.77 -1866.92 373.38 0 745.5 1865.65 -397.18 1.27 -112.14 -286.3 -846.17 0 -112.14 286.3 -398.02 0zm943.44 -1369.08l-283.75 709.39 559.86 0 -276.11 -709.39z"/>
    <path id="1" class="fil0 str0" d="M8470.52 10229.69l522.9 0c149.95,-2.55 227.26,-70.94 231.51,-205.17 -4.25,-122.77 -80.28,-186.91 -227.68,-191.58l-526.73 0 0 396.75zm750.59 306.27l465.56 813.88 -428.18 0 -446.87 -771.41 -341.1 0 0 771.41 -373.39 0 0 -1866.92 813.89 0c435.82,0 653.74,179.26 653.74,537.77 0,269.74 -114.69,441.35 -343.65,515.27z"/>
    <polygon id="2" class="fil0 str0" points="9880.37,9482.07 10252.48,9482.07 10252.48,11349.84 9880.37,11349.84 "/>
    <polygon id="3" class="fil0 str0" points="10627.14,11349.84 10627.14,9482.92 10751.6,9482.92 11921.46,10652.77 11921.46,9482.92 12294.84,9482.92 12294.84,11349.84 12158.06,11349.84 11000.53,10192.31 11000.53,11349.84 "/>
    <path id="4" class="fil0 str0" d="M12583.7 11349.84l746.77 -1866.92 373.38 0 745.5 1865.65 -397.18 1.27 -112.14 -286.3 -846.17 0 -112.14 286.3 -398.02 0zm943.44 -1369.08l-283.75 709.39 559.86 0 -276.11 -709.39z"/>
    <path id="5" class="fil0 str0" d="M14699.12 9482.92l0 1182.59c0,190.73 76.89,352.57 230.23,485.11 153.35,132.95 346.2,199.22 578.56,199.22 232.36,0 425.21,-66.27 578.98,-199.22 153.35,-132.54 230.23,-294.38 230.23,-485.11l0 -1182.59 -373.38 0 0 1082.77c0,141.03 -41.63,244.68 -124.46,311.37 -83.26,66.26 -186.91,99.4 -311.37,99.4 -124.46,0 -228.11,-33.14 -310.94,-99.4 -82.84,-66.69 -124.46,-170.34 -124.46,-311.37l0 -1082.77 -373.39 0z"/>
    <polygon id="6" class="fil0 str0" points="16625.51,9482.92 16625.51,9831.66 17247.82,9831.66 17247.82,11349.84 17620.78,11349.84 17620.78,9831.66 18243.09,9831.66 18243.09,9482.92 "/>
    <polygon id="7" class="fil0 str0" points="18520.47,9482.07 18892.58,9482.07 18892.58,11349.84 18520.47,11349.84 "/>
    <path id="8" class="fil0 str0" d="M20107.46 11349.84c-263.79,-0.85 -485.1,-90.05 -663.93,-268.04 -178.84,-177.98 -268.04,-400.99 -268.04,-669.03 0.85,-262.09 90.05,-482.56 268.46,-661.39 178.41,-178.83 399.72,-268.46 663.51,-268.46 266.34,0 494.88,83.25 685.6,248.92l-248.92 272.71c-127.01,-99.4 -272.29,-149.52 -436.68,-149.52 -167.79,0.85 -302.87,53.1 -405.24,157.17 -102.37,103.64 -153.77,236.18 -153.77,398.02 0.85,173.31 53.1,310.94 155.89,413.31 102.8,101.95 237.88,152.93 405.67,152.93 167.37,0 312.22,-49.28 434.13,-148.25l248.92 272.71c-189.87,166.09 -418.41,248.92 -685.6,248.92z"/>
    <path class="fil1" d="M6246.89 11604.61c95.19,0 169.16,11.44 221.42,34.3 52.5,22.87 101.5,56.93 147,102.43l-136.73 136.73c-45.5,-54.6 -109.2,-81.9 -191.33,-81.9 -82.13,0 -134.39,19.37 -157.26,58.1 -22.86,38.73 -22.86,71.63 0,99.16 22.87,27.3 75.13,47.83 157.26,61.37 86.57,9.1 165.2,37.56 235.89,85.39 70.47,48.07 105.93,124.36 105.93,229.13 0,81.89 -37.8,152.59 -113.16,211.85 -75.36,59.27 -163.33,88.9 -263.42,88.9 -95.43,0 -174.76,-13.77 -238.69,-41.06 -63.7,-27.3 -118.53,-63.7 -164.03,-109.43l136.73 -136.5c45.5,54.6 122.96,86.57 232.39,95.66 91.23,0 147.93,-19.36 170.56,-58.09 22.63,-38.73 22.63,-77.47 0,-116.2 -22.63,-38.73 -79.33,-62.76 -170.56,-71.86 -82.13,-9.1 -157.26,-34.07 -225.62,-75.13 -68.37,-41.07 -102.43,-111.76 -102.43,-211.86 0,-90.76 38.73,-163.56 116.43,-218.62 77.69,-54.83 157.72,-82.37 239.62,-82.37z"/>
    <polygon id="1" class="fil1" points="6760.43,11604.61 6760.43,11796.17 7102.25,11796.17 7102.25,12630.07 7307.12,12630.07 7307.12,11796.17 7648.93,11796.17 7648.93,11604.61 "/>
    <path id="2" class="fil1" d="M7785.66 11604.61l0 649.58c0,104.76 42.24,193.65 126.46,266.45 84.23,73.03 190.16,109.43 317.79,109.43 127.63,0 233.56,-36.4 318.03,-109.43 84.23,-72.8 126.46,-161.69 126.46,-266.45l0 -649.58 -205.1 0 0 594.75c0,77.46 -22.86,134.39 -68.36,171.02 -45.73,36.4 -102.66,54.6 -171.03,54.6 -68.36,0 -125.29,-18.2 -170.79,-54.6 -45.5,-36.63 -68.37,-93.56 -68.37,-171.02l0 -594.75 -205.09 0z"/>
    <path id="3" class="fil1" d="M9100.69 12425.68l0 -615.97 190.16 0c181.75,0 272.98,102.66 273.45,307.75 -0.47,205.09 -91.7,307.75 -273.45,308.22l-190.16 0zm190.16 204.39c318.95,0 478.31,-170.79 478.31,-512.61 0,-342.29 -159.36,-513.31 -478.31,-513.31l-395.25 0 0 1025.92 395.25 0z"/>
    <polygon id="4" class="fil1" points="9989.43,11604.15 10193.82,11604.15 10193.82,12630.07 9989.43,12630.07 "/>
    <path id="5" class="fil1" d="M10860.42 12630.07c-145.83,0 -267.86,-49 -365.62,-147.23 -97.99,-98.23 -146.99,-220.02 -146.99,-365.38 0,-145.83 49,-267.86 146.99,-365.85 97.76,-98 219.79,-147 365.62,-147 145.83,0 267.62,49 365.62,147 98,97.99 147,220.02 147,365.85 0,145.83 -49,267.62 -147,365.62 -98,97.99 -219.79,146.99 -365.62,146.99zm0.7 -191.33c90.76,0 164.49,-30.79 221.42,-92.39 56.93,-61.6 85.4,-137.9 85.4,-228.89 0,-91.23 -28.47,-167.53 -85.4,-229.12 -56.93,-61.37 -131.12,-92.17 -222.82,-92.17 -90.76,0 -164.49,30.8 -221.42,92.17 -56.93,61.59 -85.4,137.89 -85.4,229.12 0,90.99 28.47,167.29 85.4,228.89 56.93,61.6 131.12,92.39 222.82,92.39z"/>
    <path id="6" class="fil1" d="M11859.06 11604.61c95.19,0 169.16,11.44 221.42,34.3 52.5,22.87 101.5,56.93 147,102.43l-136.73 136.73c-45.5,-54.6 -109.2,-81.9 -191.33,-81.9 -82.13,0 -134.39,19.37 -157.26,58.1 -22.86,38.73 -22.86,71.63 0,99.16 22.87,27.3 75.13,47.83 157.26,61.37 86.57,9.1 165.2,37.56 235.89,85.39 70.47,48.07 105.93,124.36 105.93,229.13 0,81.89 -37.8,152.59 -113.16,211.85 -75.36,59.27 -163.33,88.9 -263.42,88.9 -95.43,0 -174.76,-13.77 -238.69,-41.06 -63.7,-27.3 -118.53,-63.7 -164.03,-109.43l136.73 -136.5c45.5,54.6 122.96,86.57 232.39,95.66 91.23,0 147.93,-19.36 170.56,-58.09 22.63,-38.73 22.63,-77.47 0,-116.2 -22.63,-38.73 -79.33,-62.76 -170.56,-71.86 -82.13,-9.1 -157.26,-34.07 -225.62,-75.13 -68.37,-41.07 -102.43,-111.76 -102.43,-211.86 0,-90.76 38.73,-163.56 116.43,-218.62 77.69,-54.83 157.72,-82.37 239.62,-82.37z"/>
   </g>
   <g style="clip-path:url(#id0)">
    <image x="53.96" y="8271.68" width="5285.41" height="5285.41" xlink:href="arinautictext_Images\arinautictext_ImgID1.png"/>
   </g>
  </g>
 </g>
</svg>
